<?xml version="1.0" encoding="utf-8"?>
<!-- Generator: Adobe Illustrator 15.1.0, SVG Export Plug-In . SVG Version: 6.00 Build 0)  -->
<!DOCTYPE svg PUBLIC "-//W3C//DTD SVG 1.1//EN" "http://www.w3.org/Graphics/SVG/1.1/DTD/svg11.dtd">
<svg version="1.1" id="Layer_1" xmlns="http://www.w3.org/2000/svg" xmlns:xlink="http://www.w3.org/1999/xlink" x="0px" y="0px"
	 width="19.998px" height="20px" viewBox="0 0 19.998 20" enable-background="new 0 0 19.998 20" xml:space="preserve">
<g opacity="0.3">
	<path d="M9.999,1.001c1.297-0.02,2.523,0.224,3.677,0.729c1.154,0.507,2.162,1.192,3.02,2.061c0.858,0.868,1.541,1.884,2.045,3.047
		c0.506,1.164,0.759,2.384,0.759,3.663c0,1.297-0.253,2.522-0.759,3.677c-0.504,1.154-1.187,2.16-2.045,3.02
		c-0.857,0.857-1.865,1.541-3.02,2.045c-1.153,0.506-2.38,0.759-3.677,0.759s-2.523-0.253-3.678-0.759
		c-1.153-0.504-2.159-1.188-3.019-2.045c-0.858-0.859-1.54-1.865-2.046-3.02s-0.758-2.38-0.758-3.677
		c0-1.279,0.252-2.499,0.758-3.663c0.506-1.164,1.188-2.18,2.046-3.047C4.162,2.922,5.168,2.237,6.321,1.73
		C7.476,1.225,8.702,0.981,9.999,1.001z M10.085,3.004c-1.03-0.019-1.993,0.168-2.89,0.558C6.298,3.953,5.512,4.492,4.833,5.179
		c-0.677,0.686-1.21,1.483-1.602,2.389c-0.391,0.906-0.586,1.864-0.586,2.875c0,1.029,0.195,1.994,0.586,2.891
		c0.392,0.896,0.925,1.684,1.602,2.359c0.679,0.678,1.465,1.213,2.362,1.604c0.896,0.392,1.859,0.586,2.89,0.586
		s1.993-0.194,2.89-0.586c0.896-0.391,1.684-0.926,2.361-1.604c0.677-0.676,1.211-1.463,1.604-2.359
		c0.389-0.896,0.586-1.861,0.586-2.891c0-1.012-0.197-1.97-0.586-2.875c-0.393-0.906-0.927-1.704-1.604-2.389
		c-0.678-0.687-1.465-1.227-2.361-1.618C12.078,3.172,11.115,2.985,10.085,3.004z M14.35,8.469h-1.518
		c-0.114,0-0.187-0.043-0.215-0.129c-0.028-0.085-0.052-0.147-0.071-0.186c-0.153-0.496-0.434-0.834-0.845-1.016
		c-0.41-0.181-0.939-0.271-1.588-0.271c-0.705,0-1.307,0.276-1.803,0.829c-0.496,0.554-0.743,1.451-0.743,2.69
		c0,0.954,0.257,1.799,0.772,2.532c0.515,0.734,1.163,1.103,1.945,1.103c0.4,0,0.83-0.118,1.288-0.358
		c0.458-0.237,0.781-0.625,0.973-1.158c0.02-0.076,0.048-0.21,0.086-0.4h0.286h1.402h0.229c0,0.096-0.004,0.19-0.015,0.285
		c-0.009,0.096-0.023,0.191-0.042,0.287c-0.153,0.783-0.582,1.488-1.287,2.117c-0.707,0.63-1.68,0.944-2.92,0.944
		c-1.545,0-2.8-0.501-3.763-1.503c-0.963-1.001-1.445-2.303-1.445-3.906c0-0.667,0.091-1.315,0.272-1.945
		C5.53,7.755,5.826,7.187,6.235,6.681c0.412-0.505,0.936-0.91,1.574-1.216c0.64-0.304,1.417-0.458,2.333-0.458
		c1.105,0,2.07,0.291,2.89,0.873s1.317,1.283,1.487,2.103c0.02,0.095,0.034,0.205,0.044,0.33C14.572,8.436,14.502,8.488,14.35,8.469
		z"/>
</g>
<g>
	<path fill="#FFFFFF" d="M9.999,0.001c1.297-0.02,2.523,0.224,3.677,0.729c1.154,0.507,2.162,1.192,3.02,2.061
		c0.858,0.868,1.541,1.884,2.045,3.047c0.506,1.164,0.759,2.384,0.759,3.663c0,1.297-0.253,2.522-0.759,3.677
		c-0.504,1.154-1.187,2.16-2.045,3.02c-0.857,0.857-1.865,1.541-3.02,2.045c-1.153,0.506-2.38,0.759-3.677,0.759
		s-2.523-0.253-3.678-0.759c-1.153-0.504-2.159-1.188-3.019-2.045c-0.858-0.859-1.54-1.865-2.046-3.02s-0.758-2.38-0.758-3.677
		c0-1.279,0.252-2.499,0.758-3.663c0.506-1.164,1.188-2.18,2.046-3.047C4.162,1.922,5.168,1.237,6.321,0.73
		C7.476,0.225,8.702-0.019,9.999,0.001z M10.085,2.004c-1.03-0.019-1.993,0.168-2.89,0.558C6.298,2.953,5.512,3.492,4.833,4.179
		c-0.677,0.686-1.21,1.483-1.602,2.389C2.841,7.474,2.646,8.432,2.646,9.444c0,1.029,0.195,1.994,0.586,2.89
		c0.392,0.896,0.925,1.684,1.602,2.359c0.679,0.678,1.465,1.213,2.362,1.604c0.896,0.392,1.859,0.586,2.89,0.586
		s1.993-0.194,2.89-0.586c0.896-0.391,1.684-0.926,2.361-1.604c0.677-0.676,1.211-1.463,1.604-2.359
		c0.389-0.896,0.586-1.861,0.586-2.89c0-1.012-0.197-1.97-0.586-2.876c-0.393-0.906-0.927-1.704-1.604-2.389
		c-0.678-0.687-1.465-1.227-2.361-1.618C12.078,2.172,11.115,1.985,10.085,2.004z M14.35,7.469h-1.518
		c-0.114,0-0.187-0.043-0.215-0.129c-0.028-0.085-0.052-0.147-0.071-0.186c-0.153-0.496-0.434-0.834-0.845-1.016
		c-0.41-0.181-0.939-0.271-1.588-0.271c-0.705,0-1.307,0.276-1.803,0.829C7.814,7.25,7.567,8.147,7.567,9.386
		c0,0.954,0.257,1.799,0.772,2.532c0.515,0.734,1.163,1.103,1.945,1.103c0.4,0,0.83-0.118,1.288-0.358
		c0.458-0.237,0.781-0.625,0.973-1.158c0.02-0.076,0.048-0.21,0.086-0.4h0.286h1.402h0.229c0,0.096-0.004,0.19-0.015,0.285
		c-0.009,0.096-0.023,0.191-0.042,0.287c-0.153,0.783-0.582,1.488-1.287,2.117c-0.707,0.63-1.68,0.944-2.92,0.944
		c-1.545,0-2.8-0.501-3.763-1.503c-0.963-1.001-1.445-2.303-1.445-3.906c0-0.667,0.091-1.316,0.272-1.946
		C5.53,6.755,5.826,6.187,6.235,5.681c0.412-0.505,0.936-0.91,1.574-1.216c0.64-0.304,1.417-0.458,2.333-0.458
		c1.105,0,2.07,0.291,2.89,0.873s1.317,1.283,1.487,2.103c0.02,0.095,0.034,0.205,0.044,0.33C14.572,7.436,14.502,7.488,14.35,7.469
		z"/>
</g>
</svg>
