<?xml version="1.0" encoding="utf-8"?>
<!-- Generator: Adobe Illustrator 15.1.0, SVG Export Plug-In . SVG Version: 6.00 Build 0)  -->
<!DOCTYPE svg PUBLIC "-//W3C//DTD SVG 1.1//EN" "http://www.w3.org/Graphics/SVG/1.1/DTD/svg11.dtd">
<svg version="1.1" id="Layer_1" xmlns="http://www.w3.org/2000/svg" xmlns:xlink="http://www.w3.org/1999/xlink" x="0px" y="0px"
	 width="47.5px" height="28px" viewBox="0 0 47.5 28" enable-background="new 0 0 47.5 28" xml:space="preserve">
<g>
	<path fill="#3CBB69" d="M28.821,23.369h-6.419v-18h6.419V23.369z M24.132,21.583h2.958V7.154h-2.958V21.583z"/>
	<path fill="#3CBB69" d="M21.031,23.369h-6.42v-18h6.42V23.369z M16.343,21.583H19.3V7.154h-2.957V21.583z"/>
	<path fill="#3CBB69" d="M13.241,23.369H6.821v-18h6.419V23.369z M8.553,21.583h2.958V7.154H8.553V21.583z"/>
	<g>
		<path fill="#3CBB69" d="M35.457,15.758c0,1.254,0.995,2.269,2.223,2.269s2.223-1.015,2.223-2.269V7.639
			c0-1.254-0.995-2.271-2.223-2.271s-2.223,1.017-2.223,2.271V15.758z"/>
		<path fill="#3CBB69" d="M43.138,14.954v-2.197c0-0.399-0.336-0.724-0.75-0.724s-0.75,0.324-0.75,0.724v2.197
			c0,2.253-1.776,4.085-3.958,4.085s-3.958-1.833-3.958-4.085v-2.197c0-0.399-0.336-0.724-0.75-0.724s-0.75,0.324-0.75,0.724v2.197
			c0,2.792,2.053,5.102,4.708,5.474v1.494h-2.433c-0.414,0-0.75,0.324-0.75,0.724c0,0.399,0.336,0.723,0.75,0.723h6.366
			c0.414,0,0.75-0.324,0.75-0.723c0-0.4-0.336-0.724-0.75-0.724h-2.433v-1.494C41.084,20.056,43.138,17.747,43.138,14.954z"/>
	</g>
</g>
</svg>
